# Cube parfait avec 8 sommets et normales moyennées (Smooth Shading)
o Cube_Lisse

# 1. Les 8 Sommets (Positions : X Y Z)
v  1.0  1.0  1.0
v  1.0  1.0 -1.0
v  1.0 -1.0  1.0
v  1.0 -1.0 -1.0
v -1.0  1.0  1.0
v -1.0  1.0 -1.0
v -1.0 -1.0  1.0
v -1.0 -1.0 -1.0

# 2. Les 8 Normales correspondantes (Lissées)
# Pour moyenner parfaitement un cube centré à l'origine, la normale de
# chaque coin pointe exactement en diagonale.
# Sa valeur mathématique est 1/sqrt(3) (environ 0.577350).
vn  0.577350  0.577350  0.577350
vn  0.577350  0.577350 -0.577350
vn  0.577350 -0.577350  0.577350
vn  0.577350 -0.577350 -0.577350
vn -0.577350  0.577350  0.577350
vn -0.577350  0.577350 -0.577350
vn -0.577350 -0.577350  0.577350
vn -0.577350 -0.577350 -0.577350

# 3. Activation du groupe de lissage (Optionnel mais recommandé pour les obj)


# 4. Les 12 faces triangulées (Format : indice_sommet//indice_normale)
# Face Avant
f 1//1 5//5 7//7
f 1//1 7//7 3//3

# Face Arrière
f 6//6 2//2 4//4
f 6//6 4//4 8//8

# Face Haut
f 5//5 1//1 2//2
f 5//5 2//2 6//6

# Face Bas
f 7//7 8//8 4//4
f 7//7 4//4 3//3

# Face Droite
f 1//1 3//3 4//4
f 1//1 4//4 2//2

# Face Gauche
f 6//6 8//8 7//7
f 6//6 7//7 5//5